:FULLY-SPECIFIED
:DEGREES
348
root 4.32692 16.3724 -3.72521 197.48 -95.2128 -191.821
lowerback 2.62794 0.492782 1.27619
upperback 1.08143 0.678239 1.20052
thorax -0.364657 0.332703 0.494289
lowerneck -18.3297 -1.55608 -1.28309
upperneck 19.7633 -2.70412 3.42911
head 9.32221 -1.01211 1.02859
rclavicle 2.38542e-015 9.93923e-015
rhumerus -28.5397 -2.95936 -81.9205
rradius 22.9105
rwrist 27.8425
rhand -26.7387 1.7345
rfingers 7.12502
rthumb -0.167697 -28.2452
lclavicle 2.38542e-015 9.93923e-015
lhumerus -27.693 3.89693 89.1286
lradius 22.6752
lwrist -13.9732
lhand -24.8133 1.52295
lfingers 7.12502
lthumb 1.69186 31.496
rfemur -8.48503 11.2995 28.4418
rtibia 21.1172
rfoot -16.3787 -18.7613
rtoes -2.97964
lfemur -33.3531 -1.35468 -20.4775
ltibia 53.4075
lfoot -14.2266 -1.3144
ltoes -22.0839
349
root 4.33302 16.3679 -3.72875 197.063 -95.2707 -191.372
lowerback 2.64448 0.534417 1.29461
upperback 1.06303 0.735101 1.16683
thorax -0.39204 0.36127 0.447561
lowerneck -18.2768 -1.5638 -1.31859
upperneck 19.6858 -2.7009 3.43104
head 9.28592 -1.01389 1.03565
rclavicle -1.59028e-014 -1.05356e-014
rhumerus -28.5178 -2.48094 -82.0935
rradius 23.1179
rwrist 27.5647
rhand -26.778 1.65391
rfingers 7.12502
rthumb -0.205716 -28.3257
lclavicle -1.59028e-014 -1.05356e-014
lhumerus -27.8417 3.81946 89.1919
lradius 23.1094
lwrist -13.5824
lhand -24.9516 1.6025
lfingers 7.12502
lthumb 1.55827 31.5766
rfemur -7.78184 11.3545 28.5695
rtibia 20.5471
rfoot -16.5052 -18.9662
rtoes -3.03214
lfemur -33.559 -1.58119 -20.5777
ltibia 50.9216
lfoot -14.2428 -1.21341
ltoes -22.4743
350
root 4.33729 16.3709 -3.73188 197.752 -95.3475 -192.043
lowerback 2.61489 0.58666 1.43162
upperback 1.09801 0.806167 1.1596
thorax -0.337494 0.397175 0.361945
lowerneck -18.3058 -1.57673 -1.36335
upperneck 19.5901 -2.69823 3.42782
head 9.25838 -1.01578 1.04205
rclavicle 5.56597e-015 -3.57812e-015
rhumerus -28.4438 -1.98524 -82.3021
rradius 23.3573
rwrist 26.9702
rhand -26.7727 1.65056
rfingers 7.12502
rthumb -0.200579 -28.3291
lclavicle 5.56597e-015 -3.57812e-015
lhumerus -27.865 3.89568 89.1933
lradius 23.3404
lwrist -13.6425
lhand -25.2435 1.53229
lfingers 7.12502
lthumb 1.27641 31.5082
rfemur -6.99733 11.3607 28.806
rtibia 19.7899
rfoot -16.4907 -19.1901
rtoes -3.36104
lfemur -33.7066 -1.8575 -20.5074
ltibia 48.2954
lfoot -14.1782 -1.13845
ltoes -21.9537
351
root 4.34088 16.3759 -3.73462 197.409 -95.4005 -191.661
lowerback 2.58454 0.618045 1.43191
upperback 1.1175 0.846882 1.13974
thorax -0.300082 0.417807 0.340804
lowerneck -18.3302 -1.57748 -1.39437
upperneck 19.5169 -2.68238 3.41695
head 9.23714 -1.01142 1.04535
rclavicle 4.77083e-015 -3.97569e-015
rhumerus -28.2979 -1.74636 -82.3993
rradius 23.448
rwrist 27.0372
rhand -26.8371 1.69401
rfingers 7.12502
rthumb -0.262752 -28.2856
lclavicle 4.77083e-015 -3.97569e-015
lhumerus -27.9144 4.09264 89.1665
lradius 23.634
lwrist -13.4168
lhand -25.4372 1.39639
lfingers 7.12502
lthumb 1.08927 31.3734
rfemur -6.13369 11.4649 28.9301
rtibia 18.8495
rfoot -16.3404 -19.4734
rtoes -3.46343
lfemur -33.7862 -2.25789 -20.479
ltibia 45.5193
lfoot -13.9455 -0.931905
ltoes -21.0785
352
root 4.34227 16.3841 -3.73543 197.139 -95.4638 -191.341
lowerback 2.51775 0.640925 1.46418
upperback 1.13334 0.876338 1.1104
thorax -0.2454 0.433067 0.292835
lowerneck -18.3765 -1.56968 -1.36379
upperneck 19.487 -2.66025 3.3454
head 9.23301 -1.00587 1.01841
rclavicle -1.19271e-014 -1.23246e-014
rhumerus -28.2168 -1.45933 -82.5569
rradius 23.6383
rwrist 26.7612
rhand -26.8148 1.55891
rfingers 7.12502
rthumb -0.241181 -28.4207
lclavicle -1.19271e-014 -1.23246e-014
lhumerus -27.9876 4.05354 89.1889
lradius 23.8387
lwrist -13.3001
lhand -25.7318 1.44533
lfingers 7.12502
lthumb 0.804823 31.4236
rfemur -5.15732 11.4748 29.0396
rtibia 17.6679
rfoot -16.1259 -19.6064
rtoes -3.53565
lfemur -33.7767 -2.78365 -20.3877
ltibia 42.6343
lfoot -13.6055 -0.679262
ltoes -20.745
353
root 4.34365 16.3907 -3.73608 197.492 -95.5278 -191.623
lowerback 2.43138 0.661433 1.5254
upperback 1.13741 0.902971 1.10576
thorax -0.191702 0.446891 0.254251
lowerneck -18.3787 -1.54931 -1.3156
upperneck 19.4126 -2.62282 3.26799
head 9.20472 -0.993323 0.988666
rclavicle -6.36111e-015 -2.08724e-015
rhumerus -28.0646 -1.21211 -82.6739
rradius 23.6218
rwrist 26.6021
rhand -26.9286 1.83717
rfingers 7.12502
rthumb -0.351149 -28.1423
lclavicle -6.36111e-015 -2.08724e-015
lhumerus -28.0854 4.10486 89.1982
lradius 23.9971
lwrist -13.2694
lhand -26.0852 1.50415
lfingers 7.12502
lthumb 0.463495 31.4834
rfemur -4.13001 11.4979 29.2118
rtibia 16.3194
rfoot -15.7799 -19.8102
rtoes -3.73571
lfemur -33.7511 -3.35325 -20.1703
ltibia 39.6809
lfoot -13.0823 -0.305001
ltoes -20.3261
354
root 4.34404 16.3999 -3.73804 198.025 -95.5829 -192.055
lowerback 2.32143 0.662669 1.54815
upperback 1.11531 0.903216 1.1238
thorax -0.152735 0.447302 0.261205
lowerneck -18.3606 -1.50111 -1.29693
upperneck 19.3742 -2.54788 3.21982
head 9.18516 -0.962513 0.978995
rclavicle 1.27222e-014 -3.77691e-015
rhumerus -27.989 -0.837823 -82.8538
rradius 23.799
rwrist 26.3471
rhand -26.868 1.50798
rfingers 7.12502
rthumb -0.292638 -28.4716
lclavicle 1.27222e-014 -3.77691e-015
lhumerus -28.1982 4.18422 89.1911
lradius 24.0811
lwrist -13.0952
lhand -26.3697 1.31704
lfingers 7.12502
lthumb 0.188652 31.2967
rfemur -3.02056 11.6319 29.3902
rtibia 14.7447
rfoot -15.3374 -19.925
rtoes -3.73499
lfemur -33.7016 -4.19623 -19.8005
ltibia 36.7079
lfoot -12.4863 0.296742
ltoes -19.7752
355
root 4.34231 16.4086 -3.73773 198.326 -95.6291 -192.311
lowerback 2.21623 0.688731 1.58131
upperback 1.15123 0.935122 1.12668
thorax -0.056352 0.46388 0.246537
lowerneck -18.4699 -1.50424 -1.29326
upperneck 19.3744 -2.54273 3.18552
head 9.20431 -0.961806 0.966905
rclavicle 1.43125e-014 7.65321e-015
rhumerus -27.8521 -0.746832 -82.9095
rradius 23.8629
rwrist 26.287
rhand -26.8488 1.79067
rfingers 7.12502
rthumb -0.274073 -28.1889
lclavicle 1.43125e-014 7.65321e-015
lhumerus -28.219 4.25612 89.2089
lradius 24.178
lwrist -12.8636
lhand -26.4976 1.51162
lfingers 7.12502
lthumb 0.0651542 31.4914
rfemur -1.70508 11.5554 29.5426
rtibia 12.9039
rfoot -14.8046 -19.8884
rtoes -3.71113
lfemur -33.571 -5.1875 -19.3653
ltibia 33.8084
lfoot -11.8138 1.10004
ltoes -19.2748
356
root 4.33737 16.4187 -3.73654 198.233 -95.6509 -192.173
lowerback 2.08338 0.701731 1.53486
upperback 1.15986 0.948458 1.13484
thorax 0.0260143 0.47089 0.282473
lowerneck -18.4674 -1.49523 -1.28782
upperneck 19.3423 -2.5174 3.13306
head 9.19119 -0.955365 0.951316
rclavicle 2.06736e-014 3.18055e-015
rhumerus -27.8223 -0.427523 -83.0541
rradius 24.076
rwrist 25.9388
rhand -26.9067 1.62417
rfingers 7.12502
rthumb -0.329972 -28.3553
lclavicle 2.06736e-014 3.18055e-015
lhumerus -28.3032 4.28433 89.2219
lradius 24.0889
lwrist -12.843
lhand -26.8261 1.20314
lfingers 7.12502
lthumb -0.252107 31.1827
rfemur -0.199836 11.7137 29.6565
rtibia 10.6995
rfoot -14.0621 -20.0466
rtoes -3.69174
lfemur -33.4203 -6.32002 -18.8906
ltibia 31.0367
lfoot -11.0835 2.04287
ltoes -19.1716
357
root 4.3337 16.4287 -3.73606 198.711 -95.6641 -192.56
lowerback 1.93474 0.732497 1.54904
upperback 1.15193 0.986666 1.12959
thorax 0.101673 0.490613 0.270462
lowerneck -18.5091 -1.46696 -1.25545
upperneck 19.3778 -2.48691 3.12562
head 9.2098 -0.938849 0.947374
rclavicle -1.90833e-014 2.88238e-015
rhumerus -27.7362 -0.454406 -83.1119
rradius 24.1108
rwrist 26.0168
rhand -26.8671 1.75938
rfingers 7.12502
rthumb -0.291761 -28.2202
lclavicle -1.90833e-014 2.88238e-015
lhumerus -28.3488 4.30707 89.1951
lradius 23.9769
lwrist -12.8258
lhand -26.9506 1.31449
lfingers 7.12502
lthumb -0.372354 31.2939
rfemur 1.52726 11.5072 29.8028
rtibia 7.93307
rfoot -12.9661 -19.7592
rtoes -3.93746
lfemur -33.3845 -7.70471 -18.1955
ltibia 28.4923
lfoot -10.3363 3.17113
ltoes -18.6185
358
root 4.32707 16.4369 -3.73445 198.523 -95.6613 -192.33
lowerback 1.78554 0.721956 1.46581
upperback 1.15285 0.96837 1.12414
thorax 0.184684 0.481726 0.313874
lowerneck -18.4844 -1.42343 -1.17202
upperneck 19.376 -2.43047 3.03847
head 9.20104 -0.916368 0.911193
rclavicle -1.43125e-014 3.67752e-015
rhumerus -27.6622 -0.354208 -83.2326
rradius 24.165
rwrist 26.0119
rhand -26.8456 1.7259
rfingers 7.12502
rthumb -0.270955 -28.2537
lclavicle -1.43125e-014 3.67752e-015
lhumerus -28.4645 4.55645 89.0866
lradius 23.8416
lwrist -13.1694
lhand -27.0027 1.25213
lfingers 7.12502
lthumb -0.422735 31.2315
rfemur 4.04647 11.2834 29.8657
rtibia 3.69012
rfoot -11.1052 -19.4177
rtoes -4.22227
lfemur -33.3429 -9.24074 -17.4784
ltibia 26.2277
lfoot -9.59538 4.38893
ltoes -18.1583
359
root 4.32036 16.4412 -3.73297 198.753 -95.6348 -192.542
lowerback 1.66097 0.752926 1.40443
upperback 1.17511 1.00568 1.13103
thorax 0.276209 0.500541 0.356716
lowerneck -18.5167 -1.4187 -1.21394
upperneck 19.3844 -2.4251 3.09571
head 9.21102 -0.910099 0.938441
rclavicle 1.59028e-015 9.93923e-016
rhumerus -27.5911 -0.314253 -83.3141
rradius 24.2237
rwrist 25.9468
rhand -26.8538 1.78488
rfingers 7.12502
rthumb -0.278867 -28.1947
lclavicle 1.59028e-015 9.93923e-016
lhumerus -28.4826 4.52274 89.1077
lradius 23.7053
lwrist -12.926
lhand -26.9297 1.34815
lfingers 7.12502
lthumb -0.352217 31.3276
rfemur 6.32145 11.0888 29.9639
rtibia 7.95139e-015
rfoot -9.53415 -19.0682
rtoes -4.63087
lfemur -33.3527 -10.6119 -16.7563
ltibia 24.2985
lfoot -8.85229 5.52723
ltoes -17.4335
